<?xml version="1.0" encoding="UTF-8"?>
<svg width="209px" height="61px" viewBox="0 0 209 61" version="1.1" xmlns="http://www.w3.org/2000/svg" xmlns:xlink="http://www.w3.org/1999/xlink">
    <!-- Generator: Sketch 48.1 (47250) - http://www.bohemiancoding.com/sketch -->
    <title>mixer-logo</title>
    <desc>Created with Sketch.</desc>
    <defs></defs>
    <g id="XBOX---Home-Page" stroke="none" stroke-width="1" fill="none" fill-rule="evenodd" transform="translate(-601.000000, -1041.000000)">
        <g id="Highlights-Section" transform="translate(0.000000, 704.000000)" fill-rule="nonzero">
            <g id="Card-2" transform="translate(546.000000, 283.000000)">
                <g id="mixer-logo" transform="translate(55.000000, 54.000000)">
                    <path d="M74,18 C71.2560976,18 69,20.2153179 69,22.9768786 L69,58.6950867 C69,59.4234104 69.5792683,60 70.3109756,60 L77.6890244,60 C78.4207317,60 79,59.4234104 79,58.6950867 L79,22.9768786 C79,20.2153179 76.7743902,18 74,18" id="Shape" fill="#061A54"></path>
                    <path d="M47.3904382,18.0234228 C41.2843625,18.0234228 37.061753,20.5426244 33.9327689,25.368565 C29.7709163,15.5345729 15.5841633,15.7470357 9.69073705,24.7918803 C8.77938247,20.9371982 5.34661355,18.0841264 1.24551793,18.0841264 L0,18.0841264 C0,25.7024351 0,49.8928415 0,58.6948714 C0,59.4233153 0.577191235,60 1.3062749,60 L8.65786853,60 C9.38695219,60 9.96414343,59.4233153 9.96414343,58.6948714 L9.96414343,37.0236667 C9.96414343,31.5603378 12.5766932,26.2791198 17.9840637,26.2791198 C23.0268924,26.2791198 25.4571713,29.4964135 25.4571713,36.1131119 L25.4571713,58.6645196 C25.4571713,59.3929635 26.0343625,59.9696482 26.7634462,59.9696482 L34.1150398,59.9696482 C34.8441235,59.9696482 35.4213147,59.3929635 35.4213147,58.6645196 L35.4213147,37.0236667 C35.4213147,31.8335042 38.3376494,26.2791198 43.4412351,26.2791198 C49.7295817,26.2791198 51.0054781,30.5283756 51.0054781,36.9022594 L51.0054781,58.6948714 C51.0054781,59.4233153 51.5826693,60 52.311753,60 L59.6937251,60 C60.4228088,60 61,59.4233153 61,58.6948714 L61,34.7776315 C60.9696215,24.6401211 57.3849602,18.0234228 47.3904382,18.0234228" id="Shape" fill="#061A54"></path>
                    <path d="M95.907803,19.9937271 C94.192362,17.6650712 90.821671,17.3021638 88.6247028,19.2981545 C86.7286891,21.052207 86.5782118,24.0159508 88.1130801,26.1026684 L98.0144849,39.4395154 L88.0528891,52.8973316 C86.5180209,54.9840492 86.6384027,57.947793 88.5645119,59.7018455 C90.7614801,61.6978362 94.1321711,61.3349288 95.8476121,59.0062729 L109.751712,40.2258148 C110.082763,39.7721806 110.082763,39.1370926 109.751712,38.6834583 L95.907803,19.9937271 Z" id="Shape" fill="#061A54"></path>
                    <path d="M127.080526,19.9937271 C128.798214,17.6650712 132.173322,17.3021638 134.373168,19.2981545 C136.271666,21.052207 136.422341,24.0159508 134.885462,26.1026684 L124.971084,39.4395154 L134.945731,52.8973316 C136.482611,54.9840492 136.362071,57.947793 134.433438,59.7018455 C132.233592,61.6978362 128.858484,61.3349288 127.140796,59.0062729 L113.248613,40.1955725 C112.917129,39.7419383 112.917129,39.1068503 113.248613,38.6532161 L127.080526,19.9937271 Z" id="Shape" fill="#1FBAED"></path>
                    <path d="M153.567044,28.6039392 C155.31664,26.8760212 157.373183,25.996905 159.736672,25.996905 C162.315024,25.996905 164.340872,26.7850781 165.783522,28.3614244 C167.134087,29.877142 167.870759,32.0597753 167.932149,34.9093244 L150.344103,34.9093244 C150.835218,32.3629188 151.940226,30.2409142 153.567044,28.6039392 Z M169.865913,52.2491335 C169.558966,51.8550469 169.037157,51.7034752 168.576737,51.8550469 C168.576737,51.8550469 168.576737,51.8550469 168.576737,51.8550469 C163.327948,53.6435937 151.203554,54.704596 150.313409,42.5788553 L173.518578,42.5788553 C176.004847,42.5788553 178,40.6084225 178,38.15296 C178,32.6660624 176.987076,27.3610508 173.211632,23.2686133 C163.972536,13.1739342 140,16.9935426 140,39.880878 C140,63.6170154 162.468498,63.1016714 172.659128,58.49389 C173.426494,58.1604321 173.641357,57.1903728 173.150242,56.5537714 L169.865913,52.2491335 Z" id="Shape" fill="#1FBAED"></path>
                    <path d="M208.060325,18.5474294 C206.305077,18.0608255 203.460365,18.1824765 202.552478,18.3649529 C199.01172,19.429399 196.409111,21.8624185 194.83544,25.5423606 C194.290708,21.2845764 190.659161,18 186.271042,18 L185,18 C185,25.6335988 185,49.9029689 185,58.692252 C185,59.4221579 185.574995,60 186.301304,60 L193.624925,60 C194.351234,60 194.926229,59.4221579 194.926229,58.692252 L194.926229,38.9847936 C194.926229,30.8341781 199.495926,25.1165822 207.243226,28.0057929 C208.090587,28.3099203 208.998474,27.7016655 208.998474,26.7892831 L208.998474,19.8247647 C209.028737,19.2469225 208.605057,18.6994931 208.060325,18.5474294" id="Shape" fill="#1FBAED"></path>
                    <path d="M69,5.5 C69,8.54857143 71.4757835,11 74.5156695,11 C77.5555556,11 80,8.51714286 80,5.5 C80,2.48285714 77.5242165,0 74.4843305,0 C71.4444444,0 69,2.48285714 69,5.5" id="Shape" fill="#FFFFFF"></path>
                </g>
            </g>
        </g>
    </g>
</svg>