<?xml version="1.0" encoding="UTF-8"?>
<svg width="63px" height="64px" viewBox="0 0 63 64" version="1.1" xmlns="http://www.w3.org/2000/svg" xmlns:xlink="http://www.w3.org/1999/xlink">
    <!-- Generator: Sketch 48.1 (47250) - http://www.bohemiancoding.com/sketch -->
    <title>Shape</title>
    <desc>Created with Sketch.</desc>
    <defs></defs>
    <g id="XBOX---Home-Page" stroke="none" stroke-width="1" fill="none" fill-rule="evenodd" transform="translate(-669.000000, -768.000000)">
        <g id="Highlights-Section" transform="translate(0.000000, 704.000000)" fill="#FFFFFF" fill-rule="nonzero">
            <g id="xbox-icon" transform="translate(669.000000, 64.000000)">
                <path d="M14.0329201,5.42950412 C14.0010883,5.45437587 13.9766023,5.4817348 13.9472191,5.50660656 C14.1259668,5.31509405 14.3830697,5.10865848 14.552023,4.99673558 C19.4835011,1.74102285 25.1813906,0 31.5036729,0 C37.4170391,0 42.9557698,1.65894606 47.6840141,4.54406964 C48.026818,4.75050521 48.9621828,5.40214519 49.4445567,5.99409296 L49.4445567,5.99658013 C44.8828171,0.887921654 31.4742897,11.8489041 31.4742897,11.8489041 C26.8366435,8.21762786 22.5711843,5.74288823 19.3953515,4.86242811 C16.7410704,4.12373698 14.9046212,4.74055651 14.0329201,5.42950412 Z M54.6111003,10.2595989 C54.4715302,10.1029069 54.3197171,9.95616353 54.1801469,9.79449712 C53.0268569,8.50862739 51.6091181,8.19773045 50.3309495,8.28229442 C49.1678651,8.65288357 43.7931906,10.6202394 37.1697307,16.9724856 C37.1697307,16.9724856 44.6257142,24.3370123 49.192351,31.8656925 C53.7540907,39.3943728 56.4818298,45.3113633 54.8045396,53.5240168 C59.8951766,47.8408208 63,40.2897559 63,31.9975128 C63,23.6057827 59.8192701,15.9676667 54.6111003,10.2595989 Z M43.2300128,35.0816104 C41.2074702,32.7759988 38.1981422,29.4730297 34.2240662,25.4587284 C33.3548136,24.5807555 32.4365891,23.6654749 31.4718411,22.717861 C31.4718411,22.717861 30.019822,24.1927561 28.1295037,26.132753 L28.1295037,26.1302658 C25.710288,28.612467 22.5736329,31.8507695 20.8326791,33.7410229 C17.7327529,37.101197 8.85168487,47.6542826 8.3521707,53.5712731 C8.3521707,53.5712731 6.37615142,48.877973 10.71262,38.0537852 C13.5456489,30.9777709 22.1059505,20.3525571 25.6809048,16.8904088 C25.6809048,16.8904088 22.4144739,13.2392352 18.3155195,10.7172392 L18.2910335,10.7097777 C18.2910335,10.7097777 18.2445101,10.6724701 18.1710521,10.6252137 C16.19993,9.4313695 14.0476116,8.51111457 11.976097,8.38924297 C9.8605076,8.54096067 8.52112402,10.1128556 8.52112402,10.1128556 C3.23459909,15.8383336 0,23.5336546 0,32 C0,49.6713819 14.1039294,64 31.5036729,64 C40.7373392,64 49.0454351,59.9558526 54.8094368,53.526504 C54.8069882,53.5165553 54.1458665,49.2983056 49.9073419,43.2470076 C48.9107622,41.8293176 45.2696957,37.4046324 43.2300128,35.0816104 Z" id="Shape"></path>
            </g>
        </g>
    </g>
</svg>