<?xml version="1.0" encoding="UTF-8"?>
<svg width="96px" height="29px" viewBox="0 0 96 29" version="1.1" xmlns="http://www.w3.org/2000/svg" xmlns:xlink="http://www.w3.org/1999/xlink">
    <!-- Generator: Sketch 48.1 (47250) - http://www.bohemiancoding.com/sketch -->
    <title>xbox</title>
    <desc>Created with Sketch.</desc>
    <defs></defs>
    <g id="XBOX---Home-Page" stroke="none" stroke-width="1" fill="none" fill-rule="evenodd" transform="translate(-163.000000, -15.000000)">
        <g id="navbar-navbar-dark-bg-inverse" fill-rule="nonzero">
            <g id="nav-navbar-nav" transform="translate(162.984390, 11.000000)">
                <g id="xbox" transform="translate(0.015610, 4.000000)">
                    <g id="Group" fill="#8DD83D">
                        <path d="M62.275125,14.0157372 C65.1395625,12.2268462 64.4743125,8.42858974 62.6056875,6.94661538 C60.722625,5.45348718 59.262,5.70258974 51.7183125,5.70258974 C51.3969375,5.70258974 51.13575,5.96135897 51.13575,6.28017308 L51.13575,13.196859 C48.9553125,13.196859 48.85425,13.1280769 48.6298125,13.4362949 C47.9998125,14.3007179 47.7555,14.5011154 47.9581875,14.8948462 C48.16875,15.3023333 48.3091875,15.2095705 51.1468125,15.2095705 L51.1468125,22.7672308 C51.1468125,23.0860449 51.4074375,23.3446282 51.729,23.3448141 C58.0321875,23.3502051 58.980375,23.3470449 60.141375,23.1752756 C62.902875,22.7683462 64.630125,21.0010192 64.761375,18.4477179 C64.91025,15.5809936 63.046875,14.5600449 62.275125,14.0157372 Z M60.563625,12.7531218 C59.3499375,13.3017051 59.1,13.1959295 53.3655,13.1925833 L53.3655,7.78036538 C53.5561875,7.74969231 57.41475,7.75564103 58.71525,7.78594231 C59.2305,7.79802564 59.8003125,7.9026859 60.362625,8.08821154 C61.3906875,8.42858974 61.9546875,9.18519231 61.9933125,10.2762244 C62.0349375,11.4719167 61.554,12.3052949 60.563625,12.7531218 Z M53.3630625,21.284141 L53.3630625,15.2028782 C58.356375,15.2028782 62.3761875,14.6429551 62.558625,17.9554615 C62.632125,19.2872308 62.027625,20.3102244 60.8566875,20.8350128 C59.6229375,21.3865705 58.5991875,21.3101667 54.81225,21.3005 C53.36925,21.2971538 53.533125,21.3044038 53.3630625,21.284141 Z" id="Shape"></path>
                        <path d="M82.039125,11.5641218 C80.0803125,3.90496154 69.915375,3.25301923 66.54375,9.68135256 C63.5415,15.4053205 66.486375,24.1555128 74.381625,23.7086154 C80.8490625,23.3451859 83.4856875,17.216891 82.039125,11.5641218 Z M73.9430625,21.6354872 C67.5076875,21.6354872 66.2390625,13.581109 69.0826875,9.79419231 C71.9840625,5.93180128 78.676875,6.64378846 79.9501875,12.4605192 C80.952375,17.0391731 78.651375,21.6354872 73.9430625,21.6354872 Z" id="Shape"></path>
                        <path d="M89.7375,14.1127756 C95.726625,6.05579487 95.5659375,6.47369231 95.3435625,6.03683333 C95.1375,5.63232051 94.798125,5.71969231 93.6556875,5.71969231 C93.250125,5.71969231 93.5803125,5.42504487 88.413,12.3763077 C83.26275,5.45516026 83.5835625,5.73344872 83.1759375,5.73344872 C82.0288125,5.73344872 81.6924375,5.6475641 81.487125,6.05058974 C81.3879375,6.24522436 81.407625,6.47852564 81.538125,6.65401282 L87.087,14.1135192 C80.451375,23.0769359 80.6731875,22.5750128 80.89575,23.0115 C81.101625,23.4145256 81.4385625,23.3280833 82.587375,23.3280833 C82.7724375,23.3280833 82.946625,23.2408974 83.0563125,23.0932949 L88.41225,15.892 L93.7629375,23.0802821 C93.987,23.3808782 94.2075,23.3148846 95.4016875,23.3148846 C95.6210625,23.3148846 95.82225,23.1923782 95.9214375,22.9983013 C96.1456875,22.5588397 96.339375,23.027859 89.7375,14.1127756 Z" id="Shape"></path>
                        <path d="M43.689375,14.1127756 C49.6591875,6.08758333 49.521375,6.47685256 49.29825,6.03832051 C49.1990625,5.8436859 48.997875,5.72099359 48.778125,5.72099359 C47.568375,5.72099359 47.3619375,5.66001923 47.1418125,5.95578205 L42.3631875,12.3777949 C37.218,5.45292949 37.5369375,5.72991667 37.1295,5.72991667 C35.9745,5.72991667 35.650875,5.64775 35.4470625,6.04705769 C35.3480625,6.24150641 35.36775,6.47480769 35.4980625,6.65029487 L41.044875,14.1129615 C34.4055,23.0737756 34.627875,22.5712949 34.850625,23.0081538 C35.0565,23.4108077 35.390625,23.3249231 36.544875,23.3249231 C36.951,23.3249231 36.5563125,23.7026667 42.3665625,15.8929295 C48.1820625,23.7065705 47.787,23.3249231 48.1921875,23.3249231 C48.2214375,23.3249231 49.37925,23.3249231 49.36875,23.3249231 C49.8770625,23.3249231 50.1365625,22.7259615 49.8,22.359 L43.689375,14.1127756 Z" id="Shape"></path>
                        <path d="M8.7853125,2.25921154 C10.3126875,2.44455128 12.195,3.12307692 14.380125,4.27601282 C14.518125,4.34888462 14.68725,4.35092949 14.8295625,4.27471154 C16.9839375,3.12158974 18.85425,2.43953205 20.38875,2.2473141 C20.8599375,2.18819872 20.9615625,1.55075641 20.529375,1.35166026 C16.8275625,-0.352647436 12.5776875,-0.464185897 8.6413125,1.36411538 C8.4493125,1.45334615 8.34,1.65783333 8.373375,1.86548077 C8.40675,2.07312821 8.57475,2.23374359 8.7853125,2.25921154 Z" id="Shape"></path>
                        <path d="M24.541875,23.8049103 C24.51675,23.6231026 23.823,19.2708718 14.8606875,11.9245769 C14.6870625,11.7823654 14.4365625,11.7801346 14.2606875,11.9195577 C6.36675,18.1686859 3.5540625,24.1462179 4.843875,25.2474744 C7.8924375,27.8545 10.8091875,28.9669103 14.596875,28.9669103 C18.7130625,28.9669103 21.322125,27.5975897 24.1981875,25.3878269 C24.7531875,24.9610064 24.551625,23.8590064 24.545625,23.8281474 L24.541875,23.8049103 Z" id="Shape"></path>
                        <path d="M24.6189375,4.19905128 C23.012625,3.94344231 19.9815,6.64583333 18.8068125,7.77720513 C18.631125,7.94637179 18.613875,8.22038462 18.7666875,8.41 C24.5439375,15.5716987 26.0053125,19.6610705 26.214,21.8303077 C26.2335,22.0321923 26.3810625,22.1993141 26.5801875,22.2450449 C26.781375,22.2911474 26.9870625,22.2034038 27.093,22.0321923 C28.4829375,19.7850641 29.2175625,17.1845449 29.2175625,14.5117115 C29.2179375,8.61467308 25.1491875,4.28326282 24.6189375,4.19905128 Z" id="Shape"></path>
                        <path d="M10.4025,7.77739103 C7.0365,4.53478205 5.355,4.18473718 4.7881875,4.18473718 C4.7176875,4.18473718 4.6515,4.18957051 4.5913125,4.19923718 C4.4930625,4.21485256 4.4025,4.26058333 4.3318125,4.32992308 C-0.3691875,8.94947436 -1.453875,16.2610064 2.1170625,22.03275 C2.2048125,22.1745897 2.3595,22.2578718 2.5224375,22.2578718 C2.767875,22.2578718 2.9728125,22.0729038 2.9960625,21.8310513 C3.2045625,19.6616282 4.6659375,15.5722564 10.442625,8.41037179 C10.595625,8.22038462 10.578375,7.94655769 10.4025,7.77739103 Z" id="Shape"></path>
                    </g>
                    <g id="Group" fill="#79C422">
                        <path d="M5.68029213,21.4276538 C4.88988764,22.8451218 4.70861798,23.6669744 4.70326966,23.6933718 C4.63202247,24.1201923 4.5917191,24.9602628 4.93458427,25.2476603 C8.04023596,27.8546859 11.0116067,28.9670962 14.8702247,28.9670962 C15.5771573,28.9670962 16.2371011,28.9248974 16.8653371,28.8497949 C12.0316067,28.2603141 7.91875281,25.4153397 5.68029213,21.4276538 Z" id="Shape"></path>
                        <path d="M3.8691236,14.5039038 C3.8691236,10.9495449 5.18882022,7.69671154 7.37437079,5.17854487 C6.02105618,4.31858333 5.23351685,4.18455128 4.87804494,4.18455128 C4.80622472,4.18455128 4.73879775,4.18938462 4.67748315,4.19905128 C4.57739326,4.21466667 4.48513483,4.26039744 4.4131236,4.32973718 C-0.375910112,8.94928846 -1.48091011,16.2608205 2.15689888,22.0325641 C2.24629213,22.1744038 2.4038764,22.2576859 2.56986517,22.2576859 C2.81989888,22.2576859 3.02867416,22.0727179 3.05235955,21.8308654 C3.14366292,20.8991474 3.47162921,19.6121795 4.28075281,17.8811026 C4.01410112,16.7971346 3.8691236,15.6674359 3.8691236,14.5039038 Z" id="Shape"></path>
                        <path d="M10.3772584,2.54121795 C12.2505056,1.29998077 14.4312809,0.467903846 16.7843483,0.168237179 C13.8173708,-0.218429487 11.2243933,0.260070513 8.80313483,1.36392949 C8.60753933,1.45316026 8.49617978,1.65764744 8.53017978,1.86529487 C8.61116854,2.36015385 8.99758427,2.1751859 10.3772584,2.54121795 Z" id="Shape"></path>
                    </g>
                </g>
            </g>
        </g>
    </g>
</svg>